<svg width="28" height="24" viewBox="0 0 28 24" fill="none" xmlns="http://www.w3.org/2000/svg">
<g opacity="0.5" clipPath="url(#clip0_218_11667)">
<path d="M27.5 12.9406C27.4608 13.0356 27.4255 13.1327 27.3814 13.2258C27.1422 13.7365 26.7413 14.0286 26.1806 14.0914C26.0502 14.1061 25.9169 14.1012 25.7855 14.1012C19.9766 14.1012 14.1676 14.1012 8.35866 14.1012C8.25378 14.1012 8.14987 14.1012 7.98029 14.1012C8.07831 14.2041 8.13811 14.2717 8.20182 14.3345C9.9898 16.1264 11.7788 17.9163 13.5648 19.7092C14.1284 20.2748 14.297 21.0198 13.8677 21.5922C13.4726 22.1186 12.9825 22.595 12.461 22.9999C11.963 23.3861 11.2631 23.2753 10.776 22.8666C10.7083 22.8107 10.6446 22.7499 10.5828 22.6882C7.40096 19.5073 4.21907 16.3254 1.03816 13.1425C0.458831 12.5632 0.33924 11.8593 0.717616 11.231C0.802898 11.0898 0.916608 10.9624 1.03424 10.8458C4.21417 7.66191 7.39606 4.48002 10.5779 1.29911C11.2975 0.579609 12.1542 0.579609 12.8747 1.29225C13.106 1.52065 13.3364 1.75003 13.5658 1.98137C14.2637 2.68519 14.2686 3.53506 13.5677 4.23496C11.765 6.03666 9.95843 7.83444 8.15379 9.6332C8.08811 9.69887 8.02538 9.76847 7.91951 9.88022C8.07341 9.88022 8.17438 9.88022 8.27534 9.88022C14.049 9.88022 19.8237 9.88022 25.5973 9.88022C26.7658 9.88022 27.0677 10.0812 27.499 11.1467C27.5 11.7456 27.5 12.3436 27.5 12.9406Z" fill="white"/>
</g>
<defs>
<clipPath id="clip0_218_11667">
<rect width="27" height="22.4791" fill="white" transform="translate(27.5 23.2393) rotate(-180)"/>
</clipPath>
</defs>
</svg>
