<svg width="24" height="21" viewBox="0 0 24 21" fill="none" xmlns="http://www.w3.org/2000/svg">
<g filter="url(#filter0_dd_4182_15738)">
<path d="M7 18C6.45 18 5.979 17.804 5.587 17.412C5.195 17.02 4.99933 16.5493 5 16V3H4V1H9V0H15V1H20V3H19V16C19 16.55 18.804 17.021 18.412 17.413C18.02 17.805 17.5493 18.0007 17 18H7ZM9 14H11V5H9V14ZM13 14H15V5H13V14Z" fill="white"/>
<path d="M7 18C6.45 18 5.979 17.804 5.587 17.412C5.195 17.02 4.99933 16.5493 5 16V3H4V1H9V0H15V1H20V3H19V16C19 16.55 18.804 17.021 18.412 17.413C18.02 17.805 17.5493 18.0007 17 18H7ZM9 14H11V5H9V14ZM13 14H15V5H13V14Z" fill="black" fill-opacity="0.2"/>
</g>
<defs>
<filter id="filter0_dd_4182_15738" x="0" y="0" width="24" height="26" filterUnits="userSpaceOnUse" color-interpolation-filters="sRGB">
<feFlood flood-opacity="0" result="BackgroundImageFix"/>
<feColorMatrix in="SourceAlpha" type="matrix" values="0 0 0 0 0 0 0 0 0 0 0 0 0 0 0 0 0 0 127 0" result="hardAlpha"/>
<feOffset dy="4"/>
<feGaussianBlur stdDeviation="2"/>
<feComposite in2="hardAlpha" operator="out"/>
<feColorMatrix type="matrix" values="0 0 0 0 0 0 0 0 0 0 0 0 0 0 0 0 0 0 0.25 0"/>
<feBlend mode="normal" in2="BackgroundImageFix" result="effect1_dropShadow_4182_15738"/>
<feColorMatrix in="SourceAlpha" type="matrix" values="0 0 0 0 0 0 0 0 0 0 0 0 0 0 0 0 0 0 127 0" result="hardAlpha"/>
<feOffset dy="4"/>
<feGaussianBlur stdDeviation="2"/>
<feComposite in2="hardAlpha" operator="out"/>
<feColorMatrix type="matrix" values="0 0 0 0 0 0 0 0 0 0 0 0 0 0 0 0 0 0 0.25 0"/>
<feBlend mode="normal" in2="effect1_dropShadow_4182_15738" result="effect2_dropShadow_4182_15738"/>
<feBlend mode="normal" in="SourceGraphic" in2="effect2_dropShadow_4182_15738" result="shape"/>
</filter>
</defs>
</svg>
