<svg width="30" height="30" viewBox="0 0 30 30" fill="none" xmlns="http://www.w3.org/2000/svg">
<path d="M14.9915 23.0003C12.8795 22.9911 10.8907 22.4342 8.9923 21.4899C6.74842 20.3734 4.78283 18.8397 3.01261 17.0194C2.5622 16.5565 2.13943 16.0625 1.71918 15.5692C1.42958 15.2288 1.42707 14.7772 1.71101 14.4375C4.12638 11.5549 6.94316 9.25908 10.3888 7.89761C11.9002 7.3003 13.4662 6.98841 15.0844 7.00033C16.93 7.01424 18.6896 7.45658 20.3813 8.21414C22.6616 9.23524 24.6668 10.7007 26.4734 12.4721C27.0777 13.0641 27.6425 13.7024 28.2059 14.3388C28.5986 14.7818 28.5942 15.2036 28.2147 15.6526C25.9024 18.3848 23.2207 20.584 19.9736 21.9567C18.3767 22.6315 16.7165 22.995 14.9915 23.0003ZM14.9946 20.772C18.008 20.772 20.4736 18.1908 20.4749 15.0354C20.4761 11.8277 18.0382 9.22796 15.0279 9.22663C12.0007 9.22531 9.52311 11.794 9.52186 14.9361C9.52123 18.1809 11.9504 20.772 14.9946 20.772Z" fill="white"/>
<path d="M12.4674 14.9859C12.4844 13.4834 13.6271 12.3107 15.0549 12.3312C16.4225 12.3511 17.5413 13.5629 17.53 15.0124C17.5181 16.5017 16.371 17.687 14.9601 17.6672C13.5756 17.6473 12.4517 16.4381 12.4674 14.9859Z" fill="white"/>
</svg>
